<?xml version="1.0" encoding="UTF-8" standalone="no"?>
<svg
   xmlns:dc="http://purl.org/dc/elements/1.1/"
   xmlns:cc="http://creativecommons.org/ns#"
   xmlns:rdf="http://www.w3.org/1999/02/22-rdf-syntax-ns#"
   xmlns:svg="http://www.w3.org/2000/svg"
   xmlns="http://www.w3.org/2000/svg"
   id="svg8"
   version="1.1"
   viewBox="0 0 33.866666 33.866666"
   height="128"
   width="128">
  <defs
     id="defs2" />
  <metadata
     id="metadata5">
    <rdf:RDF>
      <cc:Work
         rdf:about="">
        <dc:format>image/svg+xml</dc:format>
        <dc:type
           rdf:resource="http://purl.org/dc/dcmitype/StillImage" />
        <dc:title></dc:title>
      </cc:Work>
    </rdf:RDF>
  </metadata>
  <g
     transform="translate(0,-263.13334)"
     id="layer1">
    <path
       id="path1489"
       d="m 32.981145,295.50013 c -2.736507,-0.10326 -5.486139,-0.20701 -7.492778,-0.30207 -2.006639,-0.0951 -3.303238,-0.18287 -4.580003,-0.227 -1.276765,-0.0441 -2.508403,-0.0441 -4.1921,-0.17889 -1.683696,-0.13476 -3.77148,-0.40069 -5.030869,-0.53513 -1.259388,-0.13445 -1.674205,-0.13445 -2.6437172,-0.33535 -0.9695121,-0.20089 -2.4433912,-0.59122 -3.7667725,-1.20232 -1.3233813,-0.6111 -2.4862316,-1.44259 -3.1465366,-2.36955 -0.660305,-0.92695 -0.8167615,-1.9465 -0.4025523,-2.79516 0.4142093,-0.84866 1.4116098,-1.53754 2.269743,-2.01188 0.8581331,-0.47433 1.6269919,-0.75939 2.8057004,-1.12749 1.1787085,-0.3681 2.861824,-0.84949 4.3219932,-1.24722 1.46017,-0.39773 2.70462,-0.71412 3.488302,-0.93042 0.783681,-0.2163 1.107849,-0.33219 2.089544,-0.75948 0.981696,-0.42729 2.489535,-1.10823 3.415512,-1.63017 0.925976,-0.52194 1.174871,-0.83833 1.297151,-1.17342 0.122281,-0.33509 0.122281,-0.69103 0.04001,-1.04379 -0.08227,-0.35277 -0.250142,-0.71288 -0.456274,-1.00795 -0.206131,-0.29507 -0.455017,-0.53236 -0.887489,-0.79111 -0.432472,-0.25875 -1.018247,-0.52423 -1.493036,-0.83284 -0.474789,-0.30861 -0.762815,-0.61146 -1.078566,-1.00615 -0.315752,-0.39469 -0.647603,-0.86927 -0.819446,-1.52706 -0.171843,-0.6578 -0.182715,-1.48075 -0.0143,-2.08233 0.168417,-0.60158 0.51134,-0.95084 1.089427,-1.31791 0.578087,-0.36707 1.40785,-0.7626 2.080723,-1.06329 0.672873,-0.30069 1.170657,-0.49844 1.679037,-0.66462 0.508379,-0.16618 1.02669,-0.30161 1.834216,-0.51631 0.807526,-0.2147 1.914565,-0.51137 3.133455,-0.83916 1.218889,-0.32778 2.432111,-0.65504 3.508315,-0.90838 1.076205,-0.25334 1.959582,-0.41822 2.836666,-0.58192"
       style="fill:none;fill-rule:evenodd;stroke:#000000;stroke-width:1.00045991;stroke-linecap:butt;stroke-linejoin:miter;stroke-miterlimit:4;stroke-dasharray:none;stroke-opacity:1" />
  </g>
</svg>
